<?xml version="1.0" encoding="utf-8"?>
<!-- Generator: Adobe Illustrator 24.3.0, SVG Export Plug-In . SVG Version: 6.00 Build 0)  -->
<svg version="1.1" id="Layer_1" xmlns="http://www.w3.org/2000/svg" xmlns:xlink="http://www.w3.org/1999/xlink" x="0px" y="0px"
	 viewBox="0 0 990.91 300.19" style="enable-background:new 0 0 990.91 300.19;" xml:space="preserve">
<style type="text/css">
	.st0{fill:#FFFFFF;}
</style>
<g>
	<path class="st0" d="M747.19,199.61c0,54.48-45.22,98.58-99.65,98.58c-54.44,0-98.58-44.14-98.58-98.58V54.83
		c0-23.42-20.63-23.59-20.63-23.59l0.03-8.3h84.2l0.01,8.3c0,0-20.71,0.17-20.71,23.06l0.03,154.74c0,32.87,26.62,59.5,59.47,59.5
		c32.85,0,58.82-26.61,58.82-59.5V55.11c0-23.7-21.22-23.87-21.22-23.87l0.01-8.3h79.1l0.03,8.3c0,0-20.91,0.17-20.91,23.87V199.61z
		"/>
	<path class="st0" d="M353.17,51.44l-0.04,203.61c0,28.67,23.5,28.36,23.5,28.36V292l-85.37-0.03l0.01-8.56
		c0,0,18.92,0.31,18.92-26.42V54.84c0-23.43-23.04-23.59-23.04-23.59l0.03-8.3l79.03-0.01c59.9,0,87.27,25.16,97.16,51.98
		c9.55,25.43,4.84,57.26-15.76,77.83c-10.36,10.36-23.83,15.52-23.83,15.52s6.1,2.75,18.57,18.28c0,0,39.14,51.21,58.7,74.37
		c12.34,14.23,25.84,22.5,44.1,22.15l1.41,6.15c-20.44,11.49-44.73,12.09-65.21-1.25c-37.9-25-69.44-84.98-85.31-100.84
		c-16.91-16.91-28.39-17.55-28.39-17.55l0.98-7.41c4.92,0.77,33.22,0.77,48.99-14.15c15.77-14.93,25-52.55-2.3-81.58
		C391.66,41.27,357.01,48.05,353.17,51.44"/>
	<path class="st0" d="M94.15,179.23h66.29l-36.56-86.27L94.15,179.23z M126.04,2.13l118.9,265.38c8.91,16.21,22.48,15.9,22.48,15.9
		l0.11,8.58h-88.12l-0.07-8.58c0,0,26.09,0.31,14.24-25.98l-24.19-56.88H86.4l-20.27,58.29c-9.22,24.79,14.87,24.58,14.87,24.58
		v8.63H6.32l-0.03-8.63c0,0,16.65-0.23,25.71-25.83L126.04,2.13z"/>
	<path class="st0" d="M871.17,47.92l-0.01,204.73c0,27.55,22.2,27.25,22.2,27.25l-0.05,8.58l-85.02,0.03l0.09-8.61
		c0,0,19.42,0.31,19.42-26.13l-0.39-202.44c0-23.43-20.88-23.59-20.88-23.59l-0.03-8.3l77.67-0.01c59.9,0,88.14,25.03,97.67,51.98
		c14.06,39.85-3.95,68.67-19.51,82.87c-38.26,34.91-77.1,5.65-77.1,5.65l1.43-5.67c4.92,0.76,33.2,5.17,48.97-9.75
		c15.76-14.93,25-52.55-2.31-81.58C909.63,37.74,875,44.53,871.17,47.92"/>
</g>
</svg>
